<svg width="24" height="24" viewBox="0 0 24 24" fill="none" xmlns="http://www.w3.org/2000/svg">
<path d="M5.42799 17.245L11.504 20.716C11.6551 20.8023 11.826 20.8477 12 20.8477C12.174 20.8477 12.3449 20.8023 12.496 20.716L18.572 17.245C18.7053 17.1689 18.8193 17.063 18.9051 16.9358C18.991 16.8085 19.0464 16.6631 19.067 16.511L20.39 6.807C20.4211 6.57905 20.3726 6.34735 20.2527 6.15098C20.1328 5.95461 19.9489 5.80558 19.732 5.729L12.332 3.117C12.1168 3.04114 11.8822 3.04114 11.667 3.117L4.26799 5.73C4.05104 5.80658 3.86714 5.95561 3.74728 6.15198C3.62741 6.34835 3.57893 6.58005 3.60999 6.808L4.93299 16.512C4.95362 16.6641 5.009 16.8095 5.09484 16.9368C5.18068 17.064 5.29467 17.1689 5.42799 17.245Z" stroke="white" stroke-width="2" stroke-linecap="round" stroke-linejoin="round"/>
<path d="M9 15L12 7L15 15" stroke="white" stroke-width="2" stroke-linecap="round" stroke-linejoin="round"/>
<path d="M10 13H14" stroke="white" stroke-width="2" stroke-linecap="round" stroke-linejoin="round"/>
</svg>
